<svg width="45" height="45" viewBox="0 0 45 45" fill="none" xmlns="http://www.w3.org/2000/svg">
<rect y="1.52588e-05" width="45" height="44.7797" rx="6" fill="black"/>
<path fill-rule="evenodd" clip-rule="evenodd" d="M28.3935 23.4656C28.3647 20.7323 30.7313 19.4213 30.8369 19.3554C29.5072 17.5013 27.4352 17.2469 26.6975 17.2183C24.936 17.0473 23.2581 18.2076 22.3641 18.2076C21.4723 18.2076 20.0913 17.2431 18.6304 17.2675C16.7081 17.2949 14.9367 18.3335 13.9474 19.9739C11.9514 23.2747 13.4371 28.1669 15.3819 30.8463C16.333 32.1556 17.4669 33.6293 18.9543 33.5753C20.3883 33.5214 20.9297 32.6909 22.6629 32.6909C24.396 32.6909 24.8831 33.5753 26.3998 33.5475C27.9416 33.5209 28.9191 32.2129 29.8625 30.8981C30.9538 29.3769 31.4035 27.904 31.43 27.829C31.3967 27.8144 28.4244 26.7287 28.3935 23.4656ZM25.5434 15.4451C26.3323 14.532 26.8668 13.263 26.7218 12C25.583 12.0441 24.2046 12.7217 23.3874 13.6339C22.6551 14.4434 22.0146 15.7321 22.1862 16.9723C23.4561 17.0662 24.7518 16.3565 25.5434 15.4451Z" fill="white"/>
</svg>
