<svg width="35" height="35" viewBox="0 0 35 35" fill="none" xmlns="http://www.w3.org/2000/svg">
<circle cx="17.5" cy="17.5" r="17.5" fill="black"/>
<path fill-rule="evenodd" clip-rule="evenodd" d="M15.84 17.993V17.639C15.85 16.235 15.93 14.982 16.08 14.188C16.08 14.173 16.24 13.386 16.34 13.124C16.5 12.745 16.79 12.423 17.15 12.219C17.44 12.074 17.7401 12 18.0601 12C18.3101 12.012 18.72 12.137 19.01 12.242L19.26 12.336C20.87 12.978 23.96 15.077 25.15 16.36L25.24 16.45L25.62 16.87C25.87 17.191 26 17.585 26 18.008C26 18.387 25.88 18.766 25.65 19.072C25.58 19.171 25.47 19.298 25.37 19.406L24.99 19.803C23.69 21.124 20.87 22.978 19.4 23.592C19.4 23.606 18.4901 23.986 18.0601 24H18C17.34 24 16.72 23.621 16.4 23.009C16.31 22.841 16.23 22.513 16.16 22.225L16.05 21.681C15.92 20.807 15.84 19.465 15.84 17.993ZM9.5 19.518C8.67 19.518 8 18.839 8 18C8 17.162 8.67 16.483 9.5 16.483L13.2 16.81C13.85 16.81 14.38 17.342 14.38 18C14.38 18.658 13.85 19.191 13.2 19.191L9.5 19.518Z" fill="white"/>
</svg>
