<svg width="702" height="331" viewBox="0 0 702 331" fill="none" xmlns="http://www.w3.org/2000/svg">
<path d="M220.716 241.881H236.068C239.814 241.881 243.142 242.617 246.052 244.088C248.962 245.527 251.219 247.584 252.825 250.259C254.43 252.902 255.233 255.962 255.233 259.44C255.233 262.919 254.43 265.996 252.825 268.672C251.219 271.314 248.962 273.371 246.052 274.843C243.142 276.281 239.814 277 236.068 277H220.716V241.881ZM235.767 271.481C238.342 271.481 240.6 270.996 242.54 270.026C244.513 269.023 246.018 267.618 247.055 265.812C248.126 263.973 248.661 261.849 248.661 259.44C248.661 257.032 248.126 254.925 247.055 253.119C246.018 251.28 244.513 249.875 242.54 248.905C240.6 247.901 238.342 247.4 235.767 247.4H227.238V271.481H235.767ZM288.504 271.531V277H262.165V241.881H287.802V247.35H268.687V256.48H285.645V261.849H268.687V271.531H288.504ZM306.662 277.502C303.953 277.502 301.327 277.117 298.785 276.348C296.277 275.579 294.287 274.558 292.815 273.287L295.073 268.22C296.511 269.357 298.267 270.294 300.34 271.03C302.448 271.732 304.555 272.083 306.662 272.083C309.271 272.083 311.211 271.665 312.482 270.829C313.786 269.993 314.438 268.889 314.438 267.518C314.438 266.514 314.07 265.695 313.335 265.06C312.632 264.391 311.729 263.872 310.625 263.504C309.522 263.136 308.016 262.718 306.11 262.25C303.434 261.615 301.26 260.979 299.588 260.344C297.949 259.708 296.528 258.721 295.323 257.384C294.153 256.012 293.568 254.173 293.568 251.865C293.568 249.925 294.086 248.169 295.123 246.597C296.193 244.992 297.782 243.721 299.889 242.784C302.03 241.848 304.638 241.379 307.715 241.379C309.856 241.379 311.963 241.647 314.037 242.182C316.111 242.717 317.9 243.486 319.405 244.49L317.348 249.557C315.81 248.654 314.204 247.968 312.532 247.5C310.859 247.032 309.237 246.798 307.665 246.798C305.09 246.798 303.167 247.232 301.896 248.102C300.658 248.972 300.039 250.126 300.039 251.564C300.039 252.567 300.391 253.387 301.093 254.022C301.829 254.658 302.749 255.159 303.852 255.527C304.956 255.895 306.461 256.313 308.368 256.781C310.977 257.384 313.117 258.019 314.789 258.688C316.462 259.323 317.883 260.31 319.054 261.648C320.258 262.986 320.86 264.792 320.86 267.066C320.86 269.006 320.325 270.762 319.255 272.334C318.218 273.906 316.629 275.16 314.488 276.097C312.348 277.033 309.739 277.502 306.662 277.502ZM327.327 241.881H333.849V277H327.327V241.881ZM379.991 268.872H362.431L358.97 277H352.247L368.05 241.881H374.472L390.326 277H383.503L379.991 268.872ZM377.834 263.755L371.211 248.403L364.639 263.755H377.834ZM394.792 241.881H410.144C413.89 241.881 417.218 242.617 420.128 244.088C423.038 245.527 425.296 247.584 426.901 250.259C428.506 252.902 429.309 255.962 429.309 259.44C429.309 262.919 428.506 265.996 426.901 268.672C425.296 271.314 423.038 273.371 420.128 274.843C417.218 276.281 413.89 277 410.144 277H394.792V241.881ZM409.843 271.481C412.419 271.481 414.676 270.996 416.616 270.026C418.589 269.023 420.095 267.618 421.131 265.812C422.202 263.973 422.737 261.849 422.737 259.44C422.737 257.032 422.202 254.925 421.131 253.119C420.095 251.28 418.589 249.875 416.616 248.905C414.676 247.901 412.419 247.4 409.843 247.4H401.314V271.481H409.843ZM436.241 241.881H451.593C455.339 241.881 458.667 242.617 461.577 244.088C464.487 245.527 466.745 247.584 468.35 250.259C469.955 252.902 470.758 255.962 470.758 259.44C470.758 262.919 469.955 265.996 468.35 268.672C466.745 271.314 464.487 273.371 461.577 274.843C458.667 276.281 455.339 277 451.593 277H436.241V241.881ZM451.292 271.481C453.868 271.481 456.125 270.996 458.065 270.026C460.039 269.023 461.544 267.618 462.58 265.812C463.651 263.973 464.186 261.849 464.186 259.44C464.186 257.032 463.651 254.925 462.58 253.119C461.544 251.28 460.039 249.875 458.065 248.905C456.125 247.901 453.868 247.4 451.292 247.4H442.763V271.481H451.292ZM499.977 268.872H482.418L478.956 277H472.233L488.037 241.881H494.459L510.312 277H503.489L499.977 268.872ZM497.82 263.755L491.198 248.403L484.625 263.755H497.82Z" fill="#5E5F3F"/>
<path d="M106.672 169.151C104.233 169.151 101.887 168.916 99.6347 168.447C97.3827 167.978 95.3653 167.133 93.5824 165.913C91.8934 164.694 90.4859 163.005 89.3599 160.846C88.3278 158.688 87.8117 155.873 87.8117 152.401V83.8561C87.8117 80.6658 88.4685 77.9915 89.7822 75.8334C91.0958 73.5814 92.7379 71.8455 94.7084 70.6256C96.6789 69.312 98.8371 68.3736 101.183 67.8106C103.623 67.2476 105.922 66.9661 108.08 66.9661V169.151H106.672ZM109.487 110.599H120.888C120.888 114.446 120.184 117.683 118.777 120.31C117.369 122.844 114.507 124.111 110.191 124.111H109.487V110.599ZM121.873 90.4714C121.873 89.4392 121.779 88.407 121.592 87.3749C121.498 86.2489 121.216 85.2636 120.747 84.4191C120.372 83.4808 119.762 82.7301 118.917 82.1671C118.167 81.6041 117.088 81.3226 115.68 81.3226C113.897 81.3226 112.396 81.8856 111.176 83.0116C110.613 81.5103 110.332 80.1497 110.332 78.9299C110.332 77.4285 110.566 75.9741 111.035 74.5666C111.598 73.0653 112.443 71.7516 113.569 70.6256C114.695 69.4996 116.102 68.6082 117.791 67.9514C119.574 67.2007 121.732 66.8254 124.266 66.8254C127.081 66.8254 129.568 67.3415 131.726 68.3736C133.978 69.312 135.854 70.6725 137.356 72.4554C138.857 74.1444 139.983 76.1618 140.734 78.5076C141.578 80.7596 142 83.1993 142 85.8266V169.151C139.467 169.151 136.98 168.963 134.541 168.588C132.195 168.212 130.037 167.462 128.066 166.336C126.19 165.116 124.688 163.333 123.562 160.987C122.436 158.641 121.873 155.498 121.873 151.557V90.4714ZM187.512 119.607C187.512 118.481 187.418 117.402 187.231 116.369C187.137 115.337 186.855 114.446 186.386 113.695C186.011 112.851 185.401 112.194 184.556 111.725C183.806 111.162 182.727 110.88 181.319 110.88C180.568 110.88 179.771 111.021 178.926 111.302C178.176 111.49 177.472 111.865 176.815 112.428C176.44 111.678 176.205 110.974 176.111 110.317C176.018 109.566 175.971 108.816 175.971 108.065C175.971 105.062 177.331 102.576 180.052 100.605C182.774 98.6349 186.245 97.6496 190.468 97.6496C195.535 97.6496 199.429 99.1979 202.15 102.294C204.965 105.297 206.373 109.754 206.373 115.666V169.151H205.528C199.898 169.151 195.488 167.837 192.298 165.21C189.107 162.488 187.512 158.172 187.512 152.261V119.607ZM155.421 97.6496H156.969C161.849 97.6496 165.93 98.9633 169.215 101.591C172.593 104.218 174.282 108.394 174.282 114.117V169.151H173.437C171.279 169.151 169.121 168.869 166.963 168.306C164.898 167.743 162.975 166.852 161.192 165.632C159.503 164.318 158.095 162.676 156.969 160.706C155.937 158.641 155.421 156.108 155.421 153.105V97.6496ZM251.152 119.607C251.152 118.481 251.058 117.402 250.871 116.369C250.777 115.337 250.495 114.446 250.026 113.695C249.651 112.851 249.041 112.194 248.196 111.725C247.446 111.162 246.367 110.88 244.959 110.88C244.208 110.88 243.411 111.021 242.566 111.302C241.816 111.49 241.112 111.865 240.455 112.428C240.08 111.678 239.845 110.974 239.751 110.317C239.657 109.566 239.611 108.816 239.611 108.065C239.611 105.062 240.877 102.576 243.411 100.605C245.944 98.6349 248.994 97.6496 252.56 97.6496C258.19 97.6496 262.506 99.104 265.509 102.013C268.511 104.828 270.013 108.91 270.013 114.258V169.151C267.854 169.151 265.649 168.916 263.397 168.447C261.239 167.884 259.222 166.992 257.345 165.773C255.562 164.459 254.061 162.77 252.841 160.706C251.715 158.547 251.152 155.826 251.152 152.542V119.607ZM237.922 147.194C237.922 148.32 237.968 149.399 238.062 150.431C238.25 151.463 238.531 152.401 238.907 153.246C239.376 153.997 239.986 154.653 240.737 155.216C241.581 155.686 242.707 155.92 244.115 155.92C244.865 155.92 245.616 155.826 246.367 155.639C247.211 155.357 247.962 154.935 248.619 154.372C248.994 155.123 249.228 155.873 249.322 156.624C249.416 157.281 249.463 157.984 249.463 158.735C249.463 161.738 248.196 164.224 245.663 166.195C243.129 168.165 240.08 169.151 236.514 169.151C230.884 169.151 226.568 167.649 223.565 164.647C220.562 161.644 219.061 157.891 219.061 153.387V114.258C219.061 111.162 219.624 108.581 220.75 106.517C221.97 104.359 223.471 102.623 225.254 101.309C227.131 99.9955 229.148 99.0571 231.306 98.4941C233.558 97.9311 235.763 97.6496 237.922 97.6496V147.194ZM314.792 66.9661H316.481C318.827 66.9661 321.032 67.2476 323.096 67.8106C325.254 68.3736 327.084 69.312 328.585 70.6256C330.181 71.9393 331.4 73.769 332.245 76.1149C333.183 78.3669 333.652 81.2288 333.652 84.7006V153.95C333.652 156.202 333.183 158.266 332.245 160.143C331.4 162.019 330.181 163.614 328.585 164.928C327.084 166.242 325.254 167.274 323.096 168.025C321.032 168.775 318.78 169.151 316.34 169.151H314.792V66.9661ZM282.701 113.132C282.701 108.628 284.202 104.922 287.205 102.013C290.208 99.104 294.524 97.6496 300.154 97.6496C303.72 97.6496 306.769 98.6349 309.303 100.605C311.836 102.576 313.103 105.062 313.103 108.065C313.103 108.816 313.056 109.566 312.962 110.317C312.868 110.974 312.634 111.678 312.258 112.428C310.945 111.396 309.443 110.88 307.754 110.88H307.191C305.033 111.068 303.532 111.865 302.687 113.273C301.937 114.68 301.561 116.416 301.561 118.481V146.771C301.561 149.868 302.124 152.167 303.25 153.668C304.376 155.169 305.878 155.92 307.754 155.92C309.443 155.92 310.898 155.404 312.118 154.372C312.775 155.686 313.103 157.14 313.103 158.735C313.103 161.738 311.836 164.224 309.303 166.195C306.769 168.165 303.72 169.151 300.154 169.151C294.524 169.151 290.208 167.696 287.205 164.787C284.202 161.785 282.701 157.046 282.701 150.572V113.132ZM408.318 90.4714C408.318 89.4392 408.224 88.407 408.037 87.3749C407.943 86.2489 407.661 85.2636 407.192 84.4191C406.817 83.4808 406.207 82.7301 405.362 82.1671C404.612 81.6041 403.533 81.3226 402.125 81.3226C400.342 81.3226 398.841 81.8856 397.621 83.0116C397.058 81.5103 396.777 80.1497 396.777 78.9299C396.777 77.4285 397.011 75.9741 397.48 74.5666C398.043 73.0653 398.888 71.7516 400.014 70.6256C401.14 69.4996 402.547 68.6082 404.236 67.9514C406.019 67.2007 408.177 66.8254 410.711 66.8254C416.341 66.8254 420.704 68.5144 423.801 71.8924C426.897 75.2704 428.445 79.9151 428.445 85.8266V169.151C425.912 169.151 423.425 168.963 420.986 168.588C418.64 168.212 416.482 167.462 414.511 166.336C412.634 165.116 411.133 163.333 410.007 160.987C408.881 158.641 408.318 155.498 408.318 151.557V90.4714ZM394.665 169.151H393.258C390.818 169.151 388.472 168.916 386.22 168.447C383.968 167.978 381.951 167.133 380.168 165.913C378.479 164.694 377.072 163.005 375.946 160.846C374.913 158.688 374.397 155.873 374.397 152.401V66.9661H376.649C378.901 66.9661 381.106 67.2476 383.265 67.8106C385.423 68.2798 387.346 69.1712 389.035 70.4849C390.724 71.7047 392.085 73.3937 393.117 75.5519C394.149 77.71 394.665 80.4781 394.665 83.8561V169.151ZM442.098 90.4714C442.098 89.4392 442.004 88.407 441.817 87.3749C441.723 86.2489 441.441 85.2636 440.972 84.4191C440.597 83.4808 439.987 82.7301 439.142 82.1671C438.392 81.6041 437.313 81.3226 435.905 81.3226C434.122 81.3226 432.621 81.8856 431.401 83.0116C430.838 81.5103 430.557 80.1497 430.557 78.9299C430.557 77.4285 430.791 75.9741 431.26 74.5666C431.823 73.0653 432.668 71.7516 433.794 70.6256C434.92 69.4996 436.327 68.6082 438.016 67.9514C439.799 67.2007 441.957 66.8254 444.491 66.8254C450.121 66.8254 454.484 68.5144 457.581 71.8924C460.677 75.2704 462.225 79.9151 462.225 85.8266V169.151C459.692 169.151 457.205 168.963 454.766 168.588C452.42 168.212 450.262 167.462 448.291 166.336C446.414 165.116 444.913 163.333 443.787 160.987C442.661 158.641 442.098 155.498 442.098 151.557V90.4714ZM507.636 119.607C507.636 118.481 507.542 117.402 507.354 116.369C507.261 115.337 506.979 114.446 506.51 113.695C506.135 112.851 505.525 112.194 504.68 111.725C503.93 111.162 502.85 110.88 501.443 110.88C500.692 110.88 499.895 111.021 499.05 111.302C498.3 111.49 497.596 111.865 496.939 112.428C496.564 111.678 496.329 110.974 496.235 110.317C496.141 109.566 496.094 108.816 496.094 108.065C496.094 105.062 497.361 102.576 499.895 100.605C502.428 98.6349 505.478 97.6496 509.043 97.6496C514.673 97.6496 518.99 99.104 521.992 102.013C524.995 104.828 526.496 108.91 526.496 114.258V169.151C524.338 169.151 522.133 168.916 519.881 168.447C517.723 167.884 515.706 166.992 513.829 165.773C512.046 164.459 510.545 162.77 509.325 160.706C508.199 158.547 507.636 155.826 507.636 152.542V119.607ZM494.405 147.194C494.405 148.32 494.452 149.399 494.546 150.431C494.734 151.463 495.015 152.401 495.391 153.246C495.86 153.997 496.47 154.653 497.22 155.216C498.065 155.686 499.191 155.92 500.598 155.92C501.349 155.92 502.1 155.826 502.85 155.639C503.695 155.357 504.446 154.935 505.102 154.372C505.478 155.123 505.712 155.873 505.806 156.624C505.9 157.281 505.947 157.984 505.947 158.735C505.947 161.738 504.68 164.224 502.147 166.195C499.613 168.165 496.564 169.151 492.998 169.151C487.368 169.151 483.052 167.649 480.049 164.647C477.046 161.644 475.545 157.891 475.545 153.387V114.258C475.545 111.162 476.108 108.581 477.234 106.517C478.454 104.359 479.955 102.623 481.738 101.309C483.615 99.9955 485.632 99.0571 487.79 98.4941C490.042 97.9311 492.247 97.6496 494.405 97.6496V147.194ZM539.185 97.6496H540.733C545.612 97.6496 549.694 98.9633 552.978 101.591C556.356 104.218 558.045 108.394 558.045 114.117V169.151H557.201C555.043 169.151 552.884 168.869 550.726 168.306C548.662 167.743 546.738 166.852 544.956 165.632C543.267 164.318 541.859 162.676 540.733 160.706C539.701 158.641 539.185 156.108 539.185 153.105V97.6496ZM585.773 110.036C585.773 112.663 585.257 114.774 584.225 116.369C583.193 117.965 581.926 119.231 580.425 120.17C579.017 121.014 577.469 121.577 575.78 121.859C574.091 122.14 572.636 122.281 571.417 122.281C570.103 122.281 568.977 122.187 568.039 121.999V116.932C568.039 114.774 567.663 113.414 566.913 112.851C566.256 112.288 565.411 112.006 564.379 112.006C563.441 112.006 562.69 112.194 562.127 112.569C561.658 112.944 561.095 113.507 560.438 114.258C560.157 113.507 559.969 112.757 559.875 112.006C559.875 111.162 559.875 110.364 559.875 109.613C559.875 108.394 560.063 107.08 560.438 105.672C560.907 104.265 561.611 102.998 562.549 101.872C563.581 100.652 564.895 99.667 566.49 98.9164C568.085 98.0719 570.103 97.6496 572.543 97.6496C577.047 97.6496 580.378 98.8695 582.536 101.309C584.694 103.655 585.773 106.564 585.773 110.036ZM611.789 147.616C611.789 148.554 611.789 149.539 611.789 150.572C611.883 151.604 612.07 152.542 612.352 153.387C612.727 154.231 613.243 154.935 613.9 155.498C614.557 156.061 615.495 156.342 616.715 156.342C618.216 156.342 619.342 155.967 620.093 155.216C620.937 154.372 621.547 153.668 621.923 153.105C622.11 153.668 622.251 154.513 622.345 155.639C622.533 156.765 622.626 157.703 622.626 158.454C622.626 162.019 621.407 164.694 618.967 166.476C616.621 168.259 613.478 169.151 609.537 169.151C604.376 169.151 600.294 167.555 597.291 164.365C594.383 161.175 592.928 155.92 592.928 148.601V83.9969C592.928 81.651 593.21 79.446 593.773 77.3816C594.43 75.3173 595.415 73.5345 596.728 72.0331C598.042 70.438 599.731 69.2181 601.795 68.3736C603.954 67.4353 606.534 66.9661 609.537 66.9661C609.912 66.9661 610.287 67.013 610.663 67.1069C611.038 67.1069 611.413 67.1069 611.789 67.1069V147.616ZM614.181 98.3534H614.463C614.651 98.3534 615.073 98.3534 615.73 98.3534C616.387 98.2595 617.419 98.2126 618.826 98.2126H625.16C625.254 98.4941 625.301 99.1979 625.301 100.324C625.301 103.89 624.456 106.705 622.767 108.769C621.078 110.739 618.216 111.725 614.181 111.725V98.3534Z" fill="#4DBA4D"/>
<path d="M10.6866 148.396C10.6866 185.813 23.3603 220.106 44.3479 246.796C29.2206 223.596 20.3389 195.506 20.3389 165.22C20.3389 86.0133 80.99 21.5841 155.552 21.5841H546.449C595.46 21.5841 638.449 49.4367 662.174 91.0108C680.262 117.377 690.969 149.818 690.969 184.865C690.969 213.493 683.811 240.355 671.36 263.598C690.604 236.09 702 202.055 702 165.241C702 74.1227 632.224 0 546.449 0H155.552C112.765 0 73.9536 18.4607 45.7876 48.2734C23.9483 75.1351 10.6866 110.139 10.6866 148.396Z" fill="#0074D9"/>
<path d="M635.266 300.756C665.804 272.58 685.169 231.071 685.169 184.822C685.169 171.294 683.507 158.197 680.404 145.682C681.215 152.058 681.682 158.564 681.682 165.198C681.682 244.404 621.03 308.834 546.448 308.834H155.552C142.594 308.834 130.083 306.852 118.22 303.212C53.1483 285.634 4.8667 222.885 4.8667 148.375C4.8667 133.985 6.6917 120.027 10.0781 106.757C3.58919 124.938 0 144.626 0 165.198C0 256.317 69.7762 330.439 155.552 330.439H546.448C579.461 330.439 610.08 319.432 635.266 300.756Z" fill="#4DBA4D"/>
<path d="M620.523 201.507H101.146C96.6846 201.507 93.0752 205.116 93.0752 209.577V213.065H612.453C616.914 213.065 620.523 209.456 620.523 204.995V201.507Z" fill="#E8D022"/>
<path d="M550.641 81.5374C537.796 95.4765 508.961 89.8066 508.961 89.8066C508.961 89.8066 500.95 61.5333 513.779 47.5942C526.624 33.6552 555.46 39.325 555.46 39.325C555.46 39.325 563.486 67.5984 550.641 81.5374Z" fill="#4DBA4D"/>
<path d="M468.693 77.5852H476.415L474.637 85.9C474.105 85.52 473.603 85.14 473.132 84.6992C471.019 82.7687 469.606 80.2757 468.693 77.5852Z" fill="white"/>
<path d="M500.493 87.8305C500.493 87.8305 488.698 91.1747 479.349 88.2105L482.693 72.5082H467.462C466.322 64.999 467.751 57.6875 467.751 57.6875C467.751 57.6875 486.083 52.4888 495.127 60.834C504.157 69.1336 500.493 87.8305 500.493 87.8305Z" fill="#4DBA4D"/>
<path d="M508.975 89.8219L555.474 39.3251" stroke="white" stroke-width="2" stroke-miterlimit="10"/>
<path d="M535.576 60.9252L558.195 59.9828" stroke="white" stroke-width="2" stroke-miterlimit="10"/>
<path d="M535.577 60.9252L534.649 38.3217" stroke="white" stroke-width="2" stroke-miterlimit="10"/>
<path d="M519.525 78.3453L555.186 76.886" stroke="white" stroke-width="2" stroke-miterlimit="10"/>
<path d="M519.525 78.3452L518.066 42.6843" stroke="white" stroke-width="2" stroke-miterlimit="10"/>
<path d="M467.751 57.6722L500.494 87.8305" stroke="white" stroke-width="2" stroke-miterlimit="10"/>
<path d="M482.785 71.5961L481.69 55.6658" stroke="white" stroke-width="2" stroke-miterlimit="10"/>
<path d="M492.3 80.3669L490.917 57.3074" stroke="white" stroke-width="2" stroke-miterlimit="10"/>
</svg>
