<svg width="45" height="45" viewBox="0 0 45 45" fill="none" xmlns="http://www.w3.org/2000/svg">
<rect y="1.52588e-05" width="45" height="44.7797" rx="6" fill="#0072FF"/>
<path d="M17.8158 24.354H19.1367C19.2532 24.354 19.3698 24.4705 19.3698 24.587V32.9007C19.3698 33.3281 19.7194 33.6777 20.1468 33.6777H23.177C23.6043 33.6777 23.954 33.3281 23.954 32.9007V24.587C23.954 24.4705 24.0705 24.354 24.1871 24.354H26.3626C26.7511 24.354 27.1007 24.082 27.1396 23.6935L27.6446 20.6633C27.7223 20.1971 27.3338 19.7309 26.8676 19.7309H24.3036C24.1094 19.7309 23.954 19.5755 23.954 19.3813V17.4388C23.954 16.9338 24.2259 16.6619 24.7309 16.6619H27.023C27.4504 16.6619 27.8 16.3122 27.8 15.8849V12.777C27.8 12.3496 27.4504 12 27.023 12H24.2647C19.2144 12 19.3309 16.0791 19.3309 16.6619V19.4978C19.3309 19.6144 19.2144 19.7309 19.0978 19.7309H17.777C17.3496 19.7309 17 20.0806 17 20.5079V23.5381C17.0388 24.0043 17.3885 24.354 17.8158 24.354Z" fill="white"/>
</svg>
