<svg width="45" height="45" viewBox="0 0 45 45" fill="none" xmlns="http://www.w3.org/2000/svg">
<rect y="1.52588e-05" width="45" height="44.7797" rx="6" fill="#EA4335"/>
<g clip-path="url(#clip0_14_1616)">
<path fill-rule="evenodd" clip-rule="evenodd" d="M16.8792 22C16.8792 21.4154 16.9762 20.8549 17.1496 20.3292L14.1163 18.013C13.5251 19.2132 13.1921 20.5658 13.1921 22C13.1921 23.4331 13.5249 24.7847 14.1151 25.9842L17.1467 23.6635C16.975 23.1402 16.8792 22.5818 16.8792 22Z" fill="white"/>
<path fill-rule="evenodd" clip-rule="evenodd" d="M22.2049 16.6818C23.4749 16.6818 24.622 17.1318 25.5233 17.8682L28.1451 15.25C26.5474 13.8591 24.4991 13 22.2049 13C18.6432 13 15.5821 15.0368 14.1163 18.013L17.1495 20.3292C17.8484 18.2078 19.8406 16.6818 22.2049 16.6818Z" fill="white"/>
<path fill-rule="evenodd" clip-rule="evenodd" d="M22.2049 27.3182C19.8408 27.3182 17.8485 25.7922 17.1496 23.6708L14.1163 25.9866C15.5821 28.9632 18.6432 31 22.2049 31C24.4032 31 26.502 30.2194 28.0772 28.7569L25.198 26.5311C24.3856 27.0428 23.3626 27.3182 22.2049 27.3182Z" fill="white"/>
<path fill-rule="evenodd" clip-rule="evenodd" d="M30.8078 22C30.8078 21.4682 30.7259 20.8954 30.603 20.3637H22.2048V23.8409H27.039C26.7972 25.0265 26.1394 25.9379 25.1979 26.5311L28.0771 28.7569C29.7316 27.2213 30.8078 24.9336 30.8078 22Z" fill="white"/>
</g>
<defs>
<clipPath id="clip0_14_1616">
<rect width="18" height="18" fill="white" transform="translate(13 13)"/>
</clipPath>
</defs>
</svg>
